#!OML:ASF I:\Actors\actors\Patient Classification 2\Patient 1\Session 1\actor1.ASF
:FULLY-SPECIFIED
:DEGREES
353
root -0.655412 18.2292 5.35761 0.40667 -1.82085 -5.63641
lowerback 8.57782 2.4489 3.27466
upperback 2.08477 3.57773 1.31223
thorax -2.52454 1.76441 -0.854937
lowerneck -9.70218 -3.96804 -8.17978
upperneck 33.9618 -5.21747 4.15967
head 13.3769 -2.78877 2.34265
rclavicle 1.63003e-014 -1.98785e-016
rhumerus -18.0855 19.2614 -76.9587
rradius 88.2715
rwrist 11.5164
rhand -21.7901 -43.1734
rfingers 7.12502
rthumb 4.61144 -73.1032
lclavicle 1.63003e-014 -1.98785e-016
lhumerus -18.6607 -41.1244 95.4863
lradius 94.4672
lwrist 37.0398
lhand -7.38708 -3.81252
lfingers 7.12502
lthumb 18.4985 25.3279
rfemur 0 0 0
rtibia 0
rfoot 0 0
rtoes 0
lfemur 16.4751 -5.09039 -12.1764
ltibia -20.2877
lfoot -0.916831 20.4926
ltoes -7.95552
354
root -0.654628 18.23 5.3586 0.432583 -2.33686 -5.59836
lowerback 8.48287 2.50608 3.17637
upperback 2.05391 3.64128 1.29347
thorax -2.50654 1.7965 -0.822074
lowerneck -9.64947 -3.909 -7.93383
upperneck 33.8422 -5.13849 3.99161
head 13.2916 -2.7456 2.24317
rclavicle -1.34428e-014 -5.96354e-015
rhumerus -16.4153 19.2421 -76.1756
rradius 86.2104
rwrist 13.1947
rhand -20.2479 -42.9979
rfingers 7.12502
rthumb 6.10048 -72.8901
lclavicle -1.34428e-014 -5.96354e-015
lhumerus -18.8838 -40.9248 95.5234
lradius 94.5295
lwrist 37.0245
lhand -7.65277 -3.81284
lfingers 7.12502
lthumb 18.2429 25.3517
rfemur 0 0 0
rtibia 0
rfoot 0 0
rtoes 0
lfemur 16.5414 -4.87125 -12.237
ltibia -20.1938
lfoot -1.0883 20.7184
ltoes -7.76484
355
root -0.647787 18.2316 5.35702 0.493879 -2.74751 -5.58787
lowerback 8.37599 2.52882 3.23613
upperback 1.95885 3.6731 1.2331
thorax -2.53679 1.81061 -0.917979
lowerneck -9.47324 -3.83807 -7.73807
upperneck 33.8067 -5.09474 3.98003
head 13.2256 -2.70709 2.21278
rclavicle 1.53561e-014 -8.94531e-015
rhumerus -14.8132 19.6172 -75.6243
rradius 83.9248
rwrist 13.8822
rhand -20.6903 -42.8648
rfingers 7.12502
rthumb 5.67335 -72.7689
lclavicle 1.53561e-014 -8.94531e-015
lhumerus -19.2929 -40.7498 95.6461
lradius 94.6061
lwrist 37.0293
lhand -7.76077 -3.90953
lfingers 7.12502
lthumb 18.139 25.2647
rfemur 0 0 0
rtibia 0
rfoot 0 0
rtoes 0
lfemur 16.5252 -4.79296 -12.2891
ltibia -20.0862
lfoot -1.28563 21.0113
ltoes -7.652
356
root -0.647103 18.2295 5.35484 0.47318 -3.28021 -5.57928
lowerback 8.35743 2.61092 3.2268
upperback 1.85182 3.78202 1.17577
thorax -2.62995 1.86211 -0.984907
lowerneck -9.22 -3.77454 -7.62501
upperneck 33.8425 -5.10364 4.12859
head 13.1857 -2.68383 2.25477
rclavicle 3.62037e-014 8.94531e-015
rhumerus -13.1849 19.8696 -75.1691
rradius 81.2792
rwrist 14.8068
rhand -20.899 -42.8082
rfingers 7.12502
rthumb 5.47184 -72.7176
lclavicle 3.62037e-014 8.94531e-015
lhumerus -19.8309 -40.5881 95.8491
lradius 94.6951
lwrist 37.0582
lhand -7.81493 -3.91673
lfingers 7.12502
lthumb 18.0869 25.2623
rfemur 0 0 0
rtibia 0
rfoot 0 0
rtoes 0
lfemur 16.6538 -4.58268 -12.3351
ltibia -20.0306
lfoot -1.44986 21.3183
ltoes -7.83458
357
root -0.661941 18.2232 5.36017 0.331759 -3.52638 -5.58462
lowerback 8.31822 2.59482 2.9976
upperback 1.84025 3.74102 1.21285
thorax -2.63911 1.84305 -0.813727
lowerneck -9.1204 -3.71043 -7.58184
upperneck 33.9079 -5.08643 4.28187
head 13.193 -2.65564 2.3126
rclavicle -3.75952e-014 -5.96354e-016
rhumerus -11.4101 20.0733 -74.7774
rradius 78.3659
rwrist 15.6445
rhand -20.6608 -43.0637
rfingers 7.12502
rthumb 5.70186 -72.967
lclavicle -3.75952e-014 -5.96354e-016
lhumerus -20.2372 -40.3277 96.0273
lradius 94.7441
lwrist 37.1424
lhand -7.99433 -3.76322
lfingers 7.12502
lthumb 17.9143 25.4317
rfemur 0 0 0
rtibia 0
rfoot 0 0
rtoes 0
lfemur 16.8765 -4.18276 -12.2579
ltibia -19.991
lfoot -1.39865 21.153
ltoes -8.46587
358
root -0.647446 18.2246 5.35104 0.31723 -4.29447 -5.58223
lowerback 8.42323 2.69783 3.15269
upperback 1.80043 3.89429 1.15321
thorax -2.71876 1.91615 -0.983345
lowerneck -9.12026 -3.63809 -7.46642
upperneck 33.8945 -4.99246 4.22465
head 13.1733 -2.6087 2.2826
rclavicle 1.61264e-014 1.80894e-014
rhumerus -9.60705 20.2215 -74.4376
rradius 75.5603
rwrist 16.2323
rhand -19.8736 -43.8173
rfingers 7.12502
rthumb 6.46185 -73.6987
lclavicle 1.61264e-014 1.80894e-014
lhumerus -20.4627 -40.0015 96.1472
lradius 94.7493
lwrist 37.265
lhand -8.21224 -3.56629
lfingers 7.12502
lthumb 17.7046 25.6477
rfemur 0 0 0
rtibia 0
rfoot 0 0
rtoes 0
lfemur 17.0288 -4.15183 -12.4027
ltibia -19.9472
lfoot -1.69899 21.8372
ltoes -8.00583
359
root -0.64345 18.2234 5.35158 0.297532 -4.60997 -5.55927
lowerback 8.30601 2.68806 3.15626
upperback 1.81336 3.87562 1.1318
thorax -2.6393 1.90836 -0.998608
lowerneck -9.10868 -3.5748 -7.22265
upperneck 33.8193 -4.86805 3.95636
head 13.1124 -2.55771 2.15032
rclavicle -3.57564e-014 -1.05356e-014
rhumerus -8.20941 20.2311 -74.2801
rradius 73.4088
rwrist 15.9091
rhand -18.5507 -44.7924
rfingers 7.12502
rthumb 7.73887 -74.6307
lclavicle -3.57564e-014 -1.05356e-014
lhumerus -20.6054 -39.6932 96.2794
lradius 94.6802
lwrist 37.2801
lhand -8.29497 -3.5117
lfingers 7.12502
lthumb 17.625 25.7094
rfemur 0 0 0
rtibia 0
rfoot 0 0
rtoes 0
lfemur 17.1336 -4.14304 -12.4771
ltibia -19.9145
lfoot -1.87914 22.1216
ltoes -7.7119
360
root -0.644754 18.2216 5.35221 0.26482 -4.86692 -5.51088
lowerback 8.24447 2.68999 3.05469
upperback 1.81538 3.86654 1.11934
thorax -2.60931 1.90505 -0.950713
lowerneck -9.08604 -3.53804 -7.08256
upperneck 33.7703 -4.81378 3.84768
head 13.0742 -2.53099 2.09004
rclavicle 4.22417e-014 -9.54166e-015
rhumerus -7.43197 20.0727 -74.4081
rradius 72.1271
rwrist 14.3147
rhand -17.1406 -45.6636
rfingers 7.12502
rthumb 9.09968 -75.4473
lclavicle 4.22417e-014 -9.54166e-015
lhumerus -20.7082 -39.4729 96.3983
lradius 94.5437
lwrist 37.1469
lhand -8.24565 -3.62374
lfingers 7.12502
lthumb 17.6725 25.5931
rfemur 0 0 0
rtibia 0
rfoot 0 0
rtoes 0
lfemur 17.2431 -4.14918 -12.5576
ltibia -19.8844
lfoot -2.07316 22.371
ltoes -7.49653
